<svg xmlns="http://www.w3.org/2000/svg" xmlns:xlink="http://www.w3.org/1999/xlink" width="3840" height="2160" viewBox="0 0 1016 571.5"><defs><linearGradient id="a"><stop offset="0" style="stop-color:#000;stop-opacity:1"/><stop offset=".479" style="stop-color:#3771c8;stop-opacity:1"/><stop offset="1" style="stop-color:#4ece4e;stop-opacity:1"/></linearGradient><linearGradient xlink:href="#a" id="b" x1="0" x2="3840" y1="297" y2="-1863" gradientTransform="matrix(.26458 0 0 .26458 0 218.419)" gradientUnits="userSpaceOnUse"/></defs><g style="display:inline"><path d="M0-274.5h1016V297H0z" style="opacity:1;fill:url(#b);fill-opacity:1;stroke:none;stroke-width:16.54794312;stroke-linecap:butt;stroke-linejoin:round;stroke-miterlimit:4;stroke-dasharray:none;stroke-dashoffset:0;stroke-opacity:1" transform="translate(0 274.5)"/></g><g style="display:inline"><path d="m3557.811-1678 282.051-184.87h-427.82z" style="fill:#4cc55a;fill-opacity:1;stroke:none;stroke-width:.26944774;stroke-linecap:round;stroke-linejoin:round" transform="matrix(.2646 0 0 .26462 -.035 492.945)"/><path d="m.134-1658.082 106.148-204.789H.134Z" style="fill:#1c3a67;fill-opacity:1;stroke:none;stroke-width:.26944774;stroke-linecap:round;stroke-linejoin:round" transform="matrix(.2646 0 0 .26462 -.035 492.945)"/><path d="m106.282-1862.87 186.713 261.475 130.216-261.476z" style="fill:#22457a;fill-opacity:1;stroke:none;stroke-width:.26944774;stroke-linecap:round;stroke-linejoin:round" transform="matrix(.2646 0 0 .26462 -.035 492.945)"/><path d="m3557.811-1678 282.051 19.917v-204.788z" style="fill:#4dc856;fill-opacity:1;stroke:none;stroke-width:.26944774;stroke-linecap:round;stroke-linejoin:round" transform="matrix(.2646 0 0 .26462 -.035 492.945)"/><path d="m423.21-1862.87 473.313 272.2 177.225-272.2z" style="fill:#2d5da5;fill-opacity:1;stroke:none;stroke-width:.26944774;stroke-linecap:round;stroke-linejoin:round" transform="matrix(.2646 0 0 .26462 -.035 492.945)"/><path d="m2895.143-1553.9 89.273-308.97h-109.181Z" style="fill:#46ac7b;fill-opacity:1;stroke:none;stroke-width:.26944774;stroke-linecap:round;stroke-linejoin:round" transform="matrix(.2646 0 0 .26462 -.035 492.945)"/><path d="m.134-1658.082 292.86 56.687-186.712-261.476z" style="fill:#1c3a66;fill-opacity:1;stroke:none;stroke-width:.26944774;stroke-linecap:round;stroke-linejoin:round" transform="matrix(.2646 0 0 .26462 -.035 492.945)"/><path d="m552.3-1583.01 344.223-7.66-473.312-272.2z" style="fill:#27508d;fill-opacity:1;stroke:none;stroke-width:.26944774;stroke-linecap:round;stroke-linejoin:round" transform="matrix(.2646 0 0 .26462 -.035 492.945)"/><path d="M292.995-1601.395 552.3-1583.01l-129.09-279.86z" style="fill:#244981;fill-opacity:1;stroke:none;stroke-width:.26944774;stroke-linecap:round;stroke-linejoin:round" transform="matrix(.2646 0 0 .26462 -.035 492.945)"/><path d="m1272.397-1862.87 138.187 351.868 81.691-351.869z" style="fill:#3875c3;fill-opacity:1;stroke:none;stroke-width:.26944774;stroke-linecap:round;stroke-linejoin:round" transform="matrix(.2646 0 0 .26462 -.035 492.945)"/><path d="m2346.205-1613.652 529.03-249.219h-564.102z" style="fill:#43a189;fill-opacity:1;stroke:none;stroke-width:.26944774;stroke-linecap:round;stroke-linejoin:round" transform="matrix(.2646 0 0 .26462 -.035 492.945)"/><path d="m1888.251-1469.636 422.882-393.235h-501.93z" style="fill:#3e8fa1;fill-opacity:1;stroke:none;stroke-width:.26944774;stroke-linecap:round;stroke-linejoin:round" transform="matrix(.2646 0 0 .26462 -.035 492.945)"/><path d="m1888.251-1469.636 457.954-144.016-35.072-249.219z" style="fill:#3f90a0;fill-opacity:1;stroke:none;stroke-width:.26944774;stroke-linecap:round;stroke-linejoin:round" transform="matrix(.2646 0 0 .26462 -.035 492.945)"/><path d="m2346.205-1613.652 548.938 59.752-19.908-308.97z" style="fill:#429f8b;fill-opacity:1;stroke:none;stroke-width:.26944774;stroke-linecap:round;stroke-linejoin:round" transform="matrix(.2646 0 0 .26462 -.035 492.945)"/><path d="m552.3-1583.01 259.305 170.062 84.918-177.723z" style="fill:#285291;fill-opacity:1;stroke:none;stroke-width:.26944774;stroke-linecap:round;stroke-linejoin:round" transform="matrix(.2646 0 0 .26462 -.035 492.945)"/><path d="m.134-1446.654 292.86-154.741-292.86-56.688Z" style="fill:#1c3a66;fill-opacity:1;stroke:none;stroke-width:.26944774;stroke-linecap:round;stroke-linejoin:round" transform="matrix(.2646 0 0 .26462 -.035 492.945)"/><path d="m3557.811-1678 282.051 231.346v-211.428z" style="fill:#4cc55a;fill-opacity:1;stroke:none;stroke-width:.26944774;stroke-linecap:round;stroke-linejoin:round" transform="matrix(.2646 0 0 .26462 -.035 492.945)"/><path d="m1410.584-1511.002 398.62-351.869h-316.929z" style="fill:#397abd;fill-opacity:1;stroke:none;stroke-width:.26944774;stroke-linecap:round;stroke-linejoin:round" transform="matrix(.2646 0 0 .26462 -.035 492.945)"/><path d="m1073.748-1862.87 336.836 351.868-138.188-351.869z" style="fill:#3772c7;fill-opacity:1;stroke:none;stroke-width:.26944774;stroke-linecap:round;stroke-linejoin:round" transform="matrix(.2646 0 0 .26462 -.035 492.945)"/><path d="m1410.584-1511.002 477.667 41.366-79.048-393.235z" style="fill:#3b82b2;fill-opacity:1;stroke:none;stroke-width:.26944774;stroke-linecap:round;stroke-linejoin:round" transform="matrix(.2646 0 0 .26462 -.035 492.945)"/><path d="m896.523-1590.67 514.06 79.668-336.835-351.869z" style="fill:#3165b2;fill-opacity:1;stroke:none;stroke-width:.26944774;stroke-linecap:round;stroke-linejoin:round" transform="matrix(.2646 0 0 .26462 -.035 492.945)"/><path d="m3412.042-1862.87-49.847 514.27 195.616-329.4z" style="fill:#49bb67;fill-opacity:1;stroke:none;stroke-width:.26944774;stroke-linecap:round;stroke-linejoin:round" transform="matrix(.2646 0 0 .26462 -.035 492.945)"/><path d="m2895.143-1553.9 516.899-308.97h-427.626z" style="fill:#46ae78;fill-opacity:1;stroke:none;stroke-width:.26944774;stroke-linecap:round;stroke-linejoin:round" transform="matrix(.2646 0 0 .26462 -.035 492.945)"/><path d="m2584.28-1314.894 310.863-239.006-548.938-59.752z" style="fill:#429e8d;fill-opacity:1;stroke:none;stroke-width:.26944774;stroke-linecap:round;stroke-linejoin:round" transform="matrix(.2646 0 0 .26462 -.035 492.945)"/><path d="m2895.143-1553.9 467.052 205.3 49.847-514.27z" style="fill:#48b56f;fill-opacity:1;stroke:none;stroke-width:.26944774;stroke-linecap:round;stroke-linejoin:round" transform="matrix(.2646 0 0 .26462 -.035 492.945)"/><path d="m3052.849-1213.776 309.346-134.824-467.052-205.3z" style="fill:#45aa7e;fill-opacity:1;stroke:none;stroke-width:.26944774;stroke-linecap:round;stroke-linejoin:round" transform="matrix(.2646 0 0 .26462 -.035 492.945)"/><path d="m292.995-1601.395 147.09 407.536L552.3-1583.01z" style="fill:#23477e;fill-opacity:1;stroke:none;stroke-width:.26944774;stroke-linecap:round;stroke-linejoin:round" transform="matrix(.2646 0 0 .26462 -.035 492.945)"/><path d="m3362.195-1348.6 477.667-98.054L3557.812-1678z" style="fill:#4ac061;fill-opacity:1;stroke:none;stroke-width:.26944774;stroke-linecap:round;stroke-linejoin:round" transform="matrix(.2646 0 0 .26462 -.035 492.945)"/><path d="m2014.112-1183.135 332.093-430.517-457.954 144.017z" style="fill:#3d88a9;fill-opacity:1;stroke:none;stroke-width:.26944774;stroke-linecap:round;stroke-linejoin:round" transform="matrix(.2646 0 0 .26462 -.035 492.945)"/><path d="m440.086-1193.86 371.519-219.088L552.3-1583.01z" style="fill:#264e89;fill-opacity:1;stroke:none;stroke-width:.26944774;stroke-linecap:round;stroke-linejoin:round" transform="matrix(.2646 0 0 .26462 -.035 492.945)"/><path d="m.134-1279.656 292.86-321.74L.135-1446.653Z" style="fill:#173055;fill-opacity:1;stroke:none;stroke-width:.26944774;stroke-linecap:round;stroke-linejoin:round" transform="matrix(.2646 0 0 .26462 -.035 492.945)"/><path d="m3362.195-1348.6 477.667 68.944v-166.998z" style="fill:#4abd64;fill-opacity:1;stroke:none;stroke-width:.26944774;stroke-linecap:round;stroke-linejoin:round" transform="matrix(.2646 0 0 .26462 -.035 492.945)"/><path d="m.134-1279.656 439.952 85.797-147.091-407.536Z" style="fill:#1b3864;fill-opacity:1;stroke:none;stroke-width:.26944774;stroke-linecap:round;stroke-linejoin:round" transform="matrix(.2646 0 0 .26462 -.035 492.945)"/><path d="m2584.28-1314.894 468.569 101.118-157.706-340.124z" style="fill:#429f8c;fill-opacity:1;stroke:none;stroke-width:.26944774;stroke-linecap:round;stroke-linejoin:round" transform="matrix(.2646 0 0 .26462 -.035 492.945)"/><path d="m1410.584-1511.002 309.346 433.582 168.321-392.215z" style="fill:#397abc;fill-opacity:1;stroke:none;stroke-width:.26944774;stroke-linecap:round;stroke-linejoin:round" transform="matrix(.2646 0 0 .26462 -.035 492.945)"/><path d="m1719.93-1077.42 294.182-105.715-125.86-286.5z" style="fill:#3a7fb5;fill-opacity:1;stroke:none;stroke-width:.26944774;stroke-linecap:round;stroke-linejoin:round" transform="matrix(.2646 0 0 .26462 -.035 492.945)"/><path d="m811.605-1412.948 598.979-98.054-514.06-79.669z" style="fill:#2b589b;fill-opacity:1;stroke:none;stroke-width:.26944774;stroke-linecap:round;stroke-linejoin:round" transform="matrix(.2646 0 0 .26462 -.035 492.945)"/><path d="m811.605-1412.948 523.159 298.758 75.82-396.812z" style="fill:#3063b0;fill-opacity:1;stroke:none;stroke-width:.26944774;stroke-linecap:round;stroke-linejoin:round" transform="matrix(.2646 0 0 .26462 -.035 492.945)"/><path d="m2014.112-1183.135 570.168-131.76-238.075-298.757z" style="fill:#3e8fa1;fill-opacity:1;stroke:none;stroke-width:.26944774;stroke-linecap:round;stroke-linejoin:round" transform="matrix(.2646 0 0 .26462 -.035 492.945)"/><path d="m1334.764-1114.19 385.166 36.77-309.346-433.582z" style="fill:#356ec2;fill-opacity:1;stroke:none;stroke-width:.26944774;stroke-linecap:round;stroke-linejoin:round" transform="matrix(.2646 0 0 .26462 -.035 492.945)"/><path d="m3453.18-1048.31 386.682-231.346-477.667-68.944z" style="fill:#48b56f;fill-opacity:1;stroke:none;stroke-width:.26944774;stroke-linecap:round;stroke-linejoin:round" transform="matrix(.2646 0 0 .26462 -.035 492.945)"/><path d="m978.409-1026.861 356.355-87.33-523.16-298.757z" style="fill:#2a579a;fill-opacity:1;stroke:none;stroke-width:.26944774;stroke-linecap:round;stroke-linejoin:round" transform="matrix(.2646 0 0 .26462 -.035 492.945)"/><path d="m3453.18-1048.31 386.682-29.11v-202.236z" style="fill:#49b969;fill-opacity:1;stroke:none;stroke-width:.26944774;stroke-linecap:round;stroke-linejoin:round" transform="matrix(.2646 0 0 .26462 -.035 492.945)"/><path d="m.134-1077.42 439.952-116.44L.134-1279.655Z" style="fill:#172f52;fill-opacity:1;stroke:none;stroke-width:.26944774;stroke-linecap:round;stroke-linejoin:round" transform="matrix(.2646 0 0 .26462 -.035 492.945)"/><path d="m2584.28-1314.894 266.887 375.362 201.682-274.244z" style="fill:#429c8f;fill-opacity:1;stroke:none;stroke-width:.26944774;stroke-linecap:round;stroke-linejoin:round" transform="matrix(.2646 0 0 .26462 -.035 492.945)"/><path d="m3052.849-1213.776 400.33 165.465-90.984-300.29z" style="fill:#46ad79;fill-opacity:1;stroke:none;stroke-width:.26944774;stroke-linecap:round;stroke-linejoin:round" transform="matrix(.2646 0 0 .26462 -.035 492.945)"/><path d="m440.086-1193.86 538.323 166.999-166.804-386.087z" style="fill:#244a82;fill-opacity:1;stroke:none;stroke-width:.26944774;stroke-linecap:round;stroke-linejoin:round" transform="matrix(.2646 0 0 .26462 -.035 492.945)"/><path d="m2205.18-823.093 379.1-491.801-570.168 131.76z" style="fill:#3d87ab;fill-opacity:1;stroke:none;stroke-width:.26944774;stroke-linecap:round;stroke-linejoin:round" transform="matrix(.2646 0 0 .26462 -.035 492.945)"/><path d="m2014.112-1183.135 68.239 410.6 122.828-50.558z" style="fill:#3a7eb7;fill-opacity:1;stroke:none;stroke-width:.26944774;stroke-linecap:round;stroke-linejoin:round" transform="matrix(.2646 0 0 .26462 -.035 492.945)"/><path d="m2532.722-769.47 318.445-170.062-266.887-375.362z" style="fill:#3f919e;fill-opacity:1;stroke:none;stroke-width:.26944774;stroke-linecap:round;stroke-linejoin:round" transform="matrix(.2646 0 0 .26462 -.035 492.945)"/><path d="M440.086-1193.86 893.49-843.01l84.919-183.851z" style="fill:#22467c;fill-opacity:1;stroke:none;stroke-width:.26944774;stroke-linecap:round;stroke-linejoin:round" transform="matrix(.2646 0 0 .26462 -.035 492.945)"/><path d="m2205.18-823.093 327.543 53.623 51.557-545.424z" style="fill:#3e8ca4;fill-opacity:1;stroke:none;stroke-width:.26944774;stroke-linecap:round;stroke-linejoin:round" transform="matrix(.2646 0 0 .26462 -.035 492.945)"/><path d="m3154.448-726.572 298.731-321.739-400.33-165.465z" style="fill:#44a584;fill-opacity:1;stroke:none;stroke-width:.26944774;stroke-linecap:round;stroke-linejoin:round" transform="matrix(.2646 0 0 .26462 -.035 492.945)"/><path d="m2851.167-939.532 303.281 212.96-101.6-487.204z" style="fill:#429e8d;fill-opacity:1;stroke:none;stroke-width:.26944774;stroke-linecap:round;stroke-linejoin:round" transform="matrix(.2646 0 0 .26462 -.035 492.945)"/><path d="m1719.93-1077.42 362.42 304.886-68.237-410.6z" style="fill:#3978bf;fill-opacity:1;stroke:none;stroke-width:.26944774;stroke-linecap:round;stroke-linejoin:round" transform="matrix(.2646 0 0 .26462 -.035 492.945)"/><path d="m3453.18-1048.31 386.682 246.666v-275.776z" style="fill:#49ba69;fill-opacity:1;stroke:none;stroke-width:.26944774;stroke-linecap:round;stroke-linejoin:round" transform="matrix(.2646 0 0 .26462 -.035 492.945)"/><path d="m1774.52-752.617 307.83-19.917-362.42-304.886z" style="fill:#3977c0;fill-opacity:1;stroke:none;stroke-width:.26944774;stroke-linecap:round;stroke-linejoin:round" transform="matrix(.2646 0 0 .26462 -.035 492.945)"/><path d="m.134-801.644 439.952-392.215L.134-1077.42Z" style="fill:#152c4d;fill-opacity:1;stroke:none;stroke-width:.26944774;stroke-linecap:round;stroke-linejoin:round" transform="matrix(.2646 0 0 .26462 -.035 492.945)"/><path d="m.134-801.644 435.402 124.1 4.55-516.315Z" style="fill:#173055;fill-opacity:1;stroke:none;stroke-width:.26944774;stroke-linecap:round;stroke-linejoin:round" transform="matrix(.2646 0 0 .26462 -.035 492.945)"/><path d="M435.536-677.545 893.49-843.01l-453.404-350.848Z" style="fill:#204274;fill-opacity:1;stroke:none;stroke-width:.26944774;stroke-linecap:round;stroke-linejoin:round" transform="matrix(.2646 0 0 .26462 -.035 492.945)"/><path d="m978.409-1026.861 322.994 399.875 33.36-487.204z" style="fill:#2b589b;fill-opacity:1;stroke:none;stroke-width:.26944774;stroke-linecap:round;stroke-linejoin:round" transform="matrix(.2646 0 0 .26462 -.035 492.945)"/><path d="m1334.764-1114.19 439.757 361.573-54.59-324.803z" style="fill:#366fc4;fill-opacity:1;stroke:none;stroke-width:.26944774;stroke-linecap:round;stroke-linejoin:round" transform="matrix(.2646 0 0 .26462 -.035 492.945)"/><path d="m893.49-843.01 407.913 216.024-322.994-399.875Z" style="fill:#274f8d;fill-opacity:1;stroke:none;stroke-width:.26944774;stroke-linecap:round;stroke-linejoin:round" transform="matrix(.2646 0 0 .26462 -.035 492.945)"/><path d="m1301.403-626.986 473.118-125.631-439.757-361.574z" style="fill:#3062ad;fill-opacity:1;stroke:none;stroke-width:.26944774;stroke-linecap:round;stroke-linejoin:round" transform="matrix(.2646 0 0 .26462 -.035 492.945)"/><path d="m435.536-677.545 319.962 160.87L893.49-843.011z" style="fill:#1d3b68;fill-opacity:1;stroke:none;stroke-width:.26944774;stroke-linecap:round;stroke-linejoin:round" transform="matrix(.2646 0 0 .26462 -.035 492.945)"/><path d="m2851.167-939.532 247.174 424.389 56.107-211.429z" style="fill:#419b91;fill-opacity:1;stroke:none;stroke-width:.26944774;stroke-linecap:round;stroke-linejoin:round" transform="matrix(.2646 0 0 .26462 -.035 492.945)"/><path d="M.134-801.644 253.568-417.09l181.968-260.456Z" style="fill:#0f1e36;fill-opacity:1;stroke:none;stroke-width:.26944774;stroke-linecap:round;stroke-linejoin:round" transform="matrix(.2646 0 0 .26462 -.035 492.945)"/><path d="m.134-487.566 253.434 70.476L.134-801.643Z" style="fill:#0d1a2e;fill-opacity:1;stroke:none;stroke-width:.26944774;stroke-linecap:round;stroke-linejoin:round" transform="matrix(.2646 0 0 .26462 -.035 492.945)"/><path d="m3403.138-409.43 50.041-638.88-298.731 321.738z" style="fill:#44a485;fill-opacity:1;stroke:none;stroke-width:.26944774;stroke-linecap:round;stroke-linejoin:round" transform="matrix(.2646 0 0 .26462 -.035 492.945)"/><path d="m3403.138-409.43 436.724-392.214-386.683-246.667z" style="fill:#47b273;fill-opacity:1;stroke:none;stroke-width:.26944774;stroke-linecap:round;stroke-linejoin:round" transform="matrix(.2646 0 0 .26462 -.035 492.945)"/><path d="m3098.341-515.143 304.797 105.714-248.69-317.143z" style="fill:#429e8d;fill-opacity:1;stroke:none;stroke-width:.26944774;stroke-linecap:round;stroke-linejoin:round" transform="matrix(.2646 0 0 .26462 -.035 492.945)"/><path d="m2851.167-939.532 109.181 550.02 137.993-125.631z" style="fill:#409796;fill-opacity:1;stroke:none;stroke-width:.26944774;stroke-linecap:round;stroke-linejoin:round" transform="matrix(.2646 0 0 .26462 -.035 492.945)"/><path d="m3403.138-409.43 436.724-78.136v-314.078z" style="fill:#47b175;fill-opacity:1;stroke:none;stroke-width:.26944774;stroke-linecap:round;stroke-linejoin:round" transform="matrix(.2646 0 0 .26462 -.035 492.945)"/><path d="m2532.722-769.47 427.626 379.958-109.18-550.02z" style="fill:#3f919d;fill-opacity:1;stroke:none;stroke-width:.26944774;stroke-linecap:round;stroke-linejoin:round" transform="matrix(.2646 0 0 .26462 -.035 492.945)"/><path d="m2205.18-823.093 134.96 502.525 192.582-448.902z" style="fill:#3c86ad;fill-opacity:1;stroke:none;stroke-width:.26944774;stroke-linecap:round;stroke-linejoin:round" transform="matrix(.2646 0 0 .26462 -.035 492.945)"/><path d="m755.498-516.675 545.905-110.31L893.49-843.012Z" style="fill:#244a83;fill-opacity:1;stroke:none;stroke-width:.26944774;stroke-linecap:round;stroke-linejoin:round" transform="matrix(.2646 0 0 .26462 -.035 492.945)"/><path d="m2082.35-772.534 257.79 451.966-134.96-502.525z" style="fill:#3a7bbb;fill-opacity:1;stroke:none;stroke-width:.26944774;stroke-linecap:round;stroke-linejoin:round" transform="matrix(.2646 0 0 .26462 -.035 492.945)"/><path d="m.134-354.274 253.434-62.815L.134-487.567Z" style="fill:#0b1627;fill-opacity:1;stroke:none;stroke-width:.26944774;stroke-linecap:round;stroke-linejoin:round" transform="matrix(.2646 0 0 .26462 -.035 492.945)"/><path d="m2619.158-289.926 341.19-99.586-427.625-379.958z" style="fill:#3d89a8;fill-opacity:1;stroke:none;stroke-width:.26944774;stroke-linecap:round;stroke-linejoin:round" transform="matrix(.2646 0 0 .26462 -.035 492.945)"/><path d="m2340.14-320.568 279.018 30.642-86.435-479.544z" style="fill:#3c83b0;fill-opacity:1;stroke:none;stroke-width:.26944774;stroke-linecap:round;stroke-linejoin:round" transform="matrix(.2646 0 0 .26462 -.035 492.945)"/><path d="m1301.403-626.986 313.895 370.766 159.223-496.397z" style="fill:#2e5fa8;fill-opacity:1;stroke:none;stroke-width:.26944774;stroke-linecap:round;stroke-linejoin:round" transform="matrix(.2646 0 0 .26462 -.035 492.945)"/><path d="m3518.385-242.431 321.477-245.135-436.724 78.137z" style="fill:#44a682;fill-opacity:1;stroke:none;stroke-width:.26944774;stroke-linecap:round;stroke-linejoin:round" transform="matrix(.2646 0 0 .26462 -.035 492.945)"/><path d="m755.498-516.675 392.748 284.968 153.157-395.279z" style="fill:#244b84;fill-opacity:1;stroke:none;stroke-width:.26944774;stroke-linecap:round;stroke-linejoin:round" transform="matrix(.2646 0 0 .26462 -.035 492.945)"/><path d="m3518.385-242.431 321.477-111.843v-133.292Z" style="fill:#46ad79;fill-opacity:1;stroke:none;stroke-width:.26944774;stroke-linecap:round;stroke-linejoin:round" transform="matrix(.2646 0 0 .26462 -.035 492.945)"/><path d="m253.568-417.09 501.93-99.585-319.962-160.87Z" style="fill:#173055;fill-opacity:1;stroke:none;stroke-width:.26944774;stroke-linecap:round;stroke-linejoin:round" transform="matrix(.2646 0 0 .26462 -.035 492.945)"/><path d="m2422.025-127.524 197.133-162.402-279.019-30.642z" style="fill:#3a7db8;fill-opacity:1;stroke:none;stroke-width:.26944774;stroke-linecap:round;stroke-linejoin:round" transform="matrix(.2646 0 0 .26462 -.035 492.945)"/><path d="m1148.246-231.707 467.052-24.513-313.895-370.766z" style="fill:#295394;fill-opacity:1;stroke:none;stroke-width:.26944774;stroke-linecap:round;stroke-linejoin:round" transform="matrix(.2646 0 0 .26462 -.035 492.945)"/><path d="m3322.769-60.112 195.616-182.32-115.247-166.997Z" style="fill:#43a08a;fill-opacity:1;stroke:none;stroke-width:.26944774;stroke-linecap:round;stroke-linejoin:round" transform="matrix(.2646 0 0 .26462 -.035 492.945)"/><path d="m1615.298-256.22 467.053-516.314-307.83 19.917z" style="fill:#346bbe;fill-opacity:1;stroke:none;stroke-width:.26944774;stroke-linecap:round;stroke-linejoin:round" transform="matrix(.2646 0 0 .26462 -.035 492.945)"/><path d="m752.465-78.498 395.781-153.209-392.748-284.968Z" style="fill:#1b3761;fill-opacity:1;stroke:none;stroke-width:.26944774;stroke-linecap:round;stroke-linejoin:round" transform="matrix(.2646 0 0 .26462 -.035 492.945)"/><path d="m3098.341-515.143 224.428 455.03 80.37-349.316z" style="fill:#429d8f;fill-opacity:1;stroke:none;stroke-width:.26944774;stroke-linecap:round;stroke-linejoin:round" transform="matrix(.2646 0 0 .26462 -.035 492.945)"/><path d="m2960.348-389.512 362.42 329.4-224.427-455.031Z" style="fill:#409697;fill-opacity:1;stroke:none;stroke-width:.26944774;stroke-linecap:round;stroke-linejoin:round" transform="matrix(.2646 0 0 .26462 -.035 492.945)"/><path d="m1930.71-21.81 151.64-750.724-467.052 516.314z" style="fill:#346abc;fill-opacity:1;stroke:none;stroke-width:.26944774;stroke-linecap:round;stroke-linejoin:round" transform="matrix(.2646 0 0 .26462 -.035 492.945)"/><path d="m1930.71-21.81 409.43-298.758-257.79-451.966z" style="fill:#3874c4;fill-opacity:1;stroke:none;stroke-width:.26944774;stroke-linecap:round;stroke-linejoin:round" transform="matrix(.2646 0 0 .26462 -.035 492.945)"/><path d="M253.568-417.09 752.465-78.498l3.033-438.177z" style="fill:#172f53;fill-opacity:1;stroke:none;stroke-width:.26944774;stroke-linecap:round;stroke-linejoin:round" transform="matrix(.2646 0 0 .26462 -.035 492.945)"/><path d="m3518.385-242.431 321.477 216.025v-327.868Z" style="fill:#45aa7d;fill-opacity:1;stroke:none;stroke-width:.26944774;stroke-linecap:round;stroke-linejoin:round" transform="matrix(.2646 0 0 .26462 -.035 492.945)"/><path d="m341.52-41.727 410.945-36.77L253.568-417.09Z" style="fill:#0e1d33;fill-opacity:1;stroke:none;stroke-width:.26944774;stroke-linecap:round;stroke-linejoin:round" transform="matrix(.2646 0 0 .26462 -.035 492.945)"/><path d="M.134-354.274 341.519-41.727 253.57-417.09Z" style="fill:#0c182b;fill-opacity:1;stroke:none;stroke-width:.26944774;stroke-linecap:round;stroke-linejoin:round" transform="matrix(.2646 0 0 .26462 -.035 492.945)"/><path d="m.134-26.406 341.385-15.321L.134-354.274Z" style="fill:#08111e;fill-opacity:1;stroke:none;stroke-width:.26944774;stroke-linecap:round;stroke-linejoin:round" transform="matrix(.2646 0 0 .26462 -.035 492.945)"/><path d="m1325.665 54.794 289.633-311.014-467.052 24.513z" style="fill:#254c87;fill-opacity:1;stroke:none;stroke-width:.26944774;stroke-linecap:round;stroke-linejoin:round" transform="matrix(.2646 0 0 .26462 -.035 492.945)"/><path d="m1930.71-21.81 491.315-105.714-81.886-193.044z" style="fill:#3877c1;fill-opacity:1;stroke:none;stroke-width:.26944774;stroke-linecap:round;stroke-linejoin:round" transform="matrix(.2646 0 0 .26462 -.035 492.945)"/><path d="m3472.893 132.93 45.492-375.361-195.616 182.319z" style="fill:#419b91;fill-opacity:1;stroke:none;stroke-width:.26944774;stroke-linecap:round;stroke-linejoin:round" transform="matrix(.2646 0 0 .26462 -.035 492.945)"/><path d="m3472.893 132.93 366.97-159.336-321.478-216.025Z" style="fill:#43a387;fill-opacity:1;stroke:none;stroke-width:.26944774;stroke-linecap:round;stroke-linejoin:round" transform="matrix(.2646 0 0 .26462 -.035 492.945)"/><path d="m3472.893 132.93 366.97 67.413v-226.75Z" style="fill:#43a18a;fill-opacity:1;stroke:none;stroke-width:.26944774;stroke-linecap:round;stroke-linejoin:round" transform="matrix(.2646 0 0 .26462 -.035 492.945)"/><path d="m2960.348-389.512 24.068 686.377L3322.77-60.112z" style="fill:#3f909f;fill-opacity:1;stroke:none;stroke-width:.26944774;stroke-linecap:round;stroke-linejoin:round" transform="matrix(.2646 0 0 .26462 -.035 492.945)"/><path d="m2619.158-289.926 256.077 586.79 85.113-686.376z" style="fill:#3c84af;fill-opacity:1;stroke:none;stroke-width:.26944774;stroke-linecap:round;stroke-linejoin:round" transform="matrix(.2646 0 0 .26462 -.035 492.945)"/><path d="m1148.246-231.707-74.498 528.572 251.917-242.07Z" style="fill:#1f4072;fill-opacity:1;stroke:none;stroke-width:.26944774;stroke-linecap:round;stroke-linejoin:round" transform="matrix(.2646 0 0 .26462 -.035 492.945)"/><path d="m.134 200.343 341.385-242.07L.134-26.407Z" style="fill:#060d16;fill-opacity:1;stroke:none;stroke-width:.26944774;stroke-linecap:round;stroke-linejoin:round" transform="matrix(.2646 0 0 .26462 -.035 492.945)"/><path d="M2875.235 296.865h109.181l-24.068-686.377z" style="fill:#3c86ac;fill-opacity:1;stroke:none;stroke-width:.26944774;stroke-linecap:round;stroke-linejoin:round" transform="matrix(.2646 0 0 .26462 -.035 492.945)"/><path d="m752.465-78.498 321.283 375.363 74.498-528.572z" style="fill:#1c3a66;fill-opacity:1;stroke:none;stroke-width:.26944774;stroke-linecap:round;stroke-linejoin:round" transform="matrix(.2646 0 0 .26462 -.035 492.945)"/><path d="M106.282 296.865 341.52-41.727.134 200.343Z" style="fill:#050910;fill-opacity:1;stroke:none;stroke-width:.26944774;stroke-linecap:round;stroke-linejoin:round" transform="matrix(.2646 0 0 .26462 -.035 492.945)"/><path d="m1930.71-21.81 380.423 318.675 110.892-424.39Z" style="fill:#366fc4;fill-opacity:1;stroke:none;stroke-width:.26944774;stroke-linecap:round;stroke-linejoin:round" transform="matrix(.2646 0 0 .26462 -.035 492.945)"/><path d="M.134 296.865h106.148L.134 200.343Z" style="fill:#010204;fill-opacity:1;stroke:none;stroke-width:.26944774;stroke-linecap:round;stroke-linejoin:round" transform="matrix(.2646 0 0 .26462 -.035 492.945)"/><path d="m1492.275 296.865 123.023-553.085-289.633 311.014Z" style="fill:#244a84;fill-opacity:1;stroke:none;stroke-width:.26944774;stroke-linecap:round;stroke-linejoin:round" transform="matrix(.2646 0 0 .26462 -.035 492.945)"/><path d="M1073.748 296.865h198.648l53.27-242.07z" style="fill:#1c3965;fill-opacity:1;stroke:none;stroke-width:.26944774;stroke-linecap:round;stroke-linejoin:round" transform="matrix(.2646 0 0 .26462 -.035 492.945)"/><path d="M423.21 296.865 752.466-78.498l-410.946 36.77Z" style="fill:#0f1f37;fill-opacity:1;stroke:none;stroke-width:.26944774;stroke-linecap:round;stroke-linejoin:round" transform="matrix(.2646 0 0 .26462 -.035 492.945)"/><path d="M1492.275 296.865 1930.71-21.81l-315.412-234.41ZM1492.275 296.865h316.928L1930.71-21.81z" style="fill:#295495;fill-opacity:1;stroke:none;stroke-width:.26944774;stroke-linecap:round;stroke-linejoin:round" transform="matrix(.2646 0 0 .26462 -.035 492.945)"/><path d="m2422.025-127.524 453.21 424.389-256.077-586.791Z" style="fill:#3a7fb6;fill-opacity:1;stroke:none;stroke-width:.26944774;stroke-linecap:round;stroke-linejoin:round" transform="matrix(.2646 0 0 .26462 -.035 492.945)"/><path d="M1272.397 296.865h219.878l-166.61-242.07Z" style="fill:#204274;fill-opacity:1;stroke:none;stroke-width:.26944774;stroke-linecap:round;stroke-linejoin:round" transform="matrix(.2646 0 0 .26462 -.035 492.945)"/><path d="m3322.769-60.112 89.273 356.977 60.85-163.934z" style="fill:#419796;fill-opacity:1;stroke:none;stroke-width:.26944774;stroke-linecap:round;stroke-linejoin:round" transform="matrix(.2646 0 0 .26462 -.035 492.945)"/><path d="M106.282 296.865h316.929L341.519-41.727Z" style="fill:#0a1525;fill-opacity:1;stroke:none;stroke-width:.26944774;stroke-linecap:round;stroke-linejoin:round" transform="matrix(.2646 0 0 .26462 -.035 492.945)"/><path d="M2984.416 296.865h427.626l-89.273-356.977z" style="fill:#3f929d;fill-opacity:1;stroke:none;stroke-width:.26944774;stroke-linecap:round;stroke-linejoin:round" transform="matrix(.2646 0 0 .26462 -.035 492.945)"/><path d="m3472.893 132.93 366.97 163.935v-96.522z" style="fill:#43a08a;fill-opacity:1;stroke:none;stroke-width:.26944774;stroke-linecap:round;stroke-linejoin:round" transform="matrix(.2646 0 0 .26462 -.035 492.945)"/><path d="M2311.133 296.865h564.102l-453.21-424.39z" style="fill:#397abc;fill-opacity:1;stroke:none;stroke-width:.26944774;stroke-linecap:round;stroke-linejoin:round" transform="matrix(.2646 0 0 .26462 -.035 492.945)"/><path d="M1809.204 296.865h501.929L1930.71-21.81Z" style="fill:#2f61ac;fill-opacity:1;stroke:none;stroke-width:.26944774;stroke-linecap:round;stroke-linejoin:round" transform="matrix(.2646 0 0 .26462 -.035 492.945)"/><path d="M3412.042 296.865h427.82l-366.97-163.934Z" style="fill:#419b91;fill-opacity:1;stroke:none;stroke-width:.26944774;stroke-linecap:round;stroke-linejoin:round" transform="matrix(.2646 0 0 .26462 -.035 492.945)"/><path d="M423.21 296.865h650.538L752.465-78.498Z" style="fill:#152b4b;fill-opacity:1;stroke:none;stroke-width:.26944774;stroke-linecap:round;stroke-linejoin:round" transform="matrix(.2646 0 0 .26462 -.035 492.945)"/><path d="M.134-26.406v323.27-96.521Z" style="fill:none;fill-opacity:1;stroke:none;stroke-width:.26944774;stroke-linecap:round;stroke-linejoin:round" transform="matrix(.2646 0 0 .26462 -.035 492.945)"/><path d="M.134-1862.87v416.216-211.428zM.134-354.274v651.139-323.271ZM.134-1862.87v583.214-166.998z" style="fill:none;stroke:none;stroke-width:.26944774;stroke-linecap:round;stroke-linejoin:round" transform="matrix(.2646 0 0 .26462 -.035 492.945)"/><path d="M.134-1862.87v785.45-202.236z" style="fill:none;fill-opacity:1;stroke:none;stroke-width:.26944774;stroke-linecap:round;stroke-linejoin:round" transform="matrix(.2646 0 0 .26462 -.035 492.945)"/><path d="M.134-487.566v784.43-651.138ZM.134-1862.87v1061.226-275.776zM.134-801.644V296.865v-784.43ZM.134-1862.87V296.864v-1098.51z" style="fill:none;stroke:none;stroke-width:.26944774;stroke-linecap:round;stroke-linejoin:round" transform="matrix(.2646 0 0 .26462 -.035 492.945)"/></g></svg>