<svg height="800" width="800" xmlns="http://www.w3.org/2000/svg" viewBox="0 0 26 26" xml:space="preserve"><path style="fill:#030104" d="M21.184 2.555c.688 1.202.125 1.662-.436 1.977-.561.314-1.235.425-1.921-.774C18.136 2.556 18.11 0 18.11 0s2.384 1.354 3.074 2.555zM24.16 6.004c-.595 1.251-1.292 1.053-1.87.775-.581-.283-1.056-.773-.467-2.02.595-1.254 2.674-2.736 2.674-2.736s.254 2.731-.337 3.981zM24.564 10.728c-.897 1.056-1.521.685-2.006.267-.487-.421-.82-1.018.07-2.071.895-1.06 3.291-1.954 3.291-1.954s-.461 2.702-1.355 3.758zM20.565 9.336c1.229.716.978 1.396.65 1.949-.329.554-.863.984-2.09.271-1.232-.715-2.59-2.946-2.59-2.946s2.798.012 4.03.726zM22.944 15.583c-1.202.688-1.662.128-1.979-.431-.315-.561-.426-1.237.771-1.925 1.201-.691 3.759-.721 3.759-.721s-1.35 2.387-2.551 3.077zM19.835 13.057c.88 1.121.393 1.659-.114 2.052-.509.396-1.169.596-2.045-.521-.878-1.121-1.312-3.695-1.312-3.695s2.592 1.047 3.471 2.164zM20.428 19.678c-1.366.24-1.607-.443-1.716-1.076-.108-.636.015-1.307 1.372-1.55 1.367-.243 3.783.597 3.783.597s-2.081 1.785-3.439 2.029zM18.198 16.285c.601 1.292 0 1.704-.584 1.971-.587.266-1.271.311-1.866-.975-.601-1.293-.432-3.9-.432-3.9s2.286 1.614 2.882 2.904zM15.474 18.787c.245 1.4-.438 1.645-1.07 1.753-.636.103-1.312-.028-1.555-1.424-.245-1.404.587-3.88.587-3.88s1.792 2.149 2.038 3.551zM16.792 22.827c-1.409-.209-1.424-.937-1.327-1.57.104-.638.44-1.234 1.843-1.024 1.409.211 3.496 1.783 3.496 1.783s-2.607 1.021-4.012.811zM12.398 21.047c.102 1.42-.603 1.594-1.244 1.637-.643.037-1.3-.164-1.403-1.576-.098-1.422.983-3.799.983-3.799s1.565 2.321 1.664 3.738zM12.762 25.197c-1.344-.477-1.221-1.192-1.001-1.796.221-.606.668-1.127 2.005-.654 1.342.477 3.088 2.419 3.088 2.419s-2.754.504-4.092.031z"/><path style="fill:#030104" d="M20.163 5.464c1.366.37 1.298 1.096 1.126 1.712-.174.621-.579 1.175-1.939.806-1.371-.37-3.243-2.17-3.243-2.17s2.691-.717 4.056-.348zM10.638 23.44S4.185 25.978.159 25.074c-.316.376.446.926.446.926s5.86.091 10.033-2.56z"/></svg>