<svg width="128" height="128" viewBox="0 0 128 128" fill="none" xmlns="http://www.w3.org/2000/svg">
<path d="M0 64C0 28.6538 28.6538 0 64 0V0C99.3462 0 128 28.6538 128 64V64C128 99.3462 99.3462 128 64 128V128C28.6538 128 0 99.3462 0 64V64Z" fill="#0A0A0A"/>
<circle cx="64" cy="64" r="60" fill="#171717"/>
<line x1="24.5" y1="99.5" x2="103.5" y2="99.5" stroke="#E5E5E5" stroke-linecap="round"/>
<line x1="29.5" y1="94.5" x2="98.5" y2="94.5" stroke="#E5E5E5" stroke-linecap="round"/>
<line x1="39.5" y1="89.5" x2="88.5" y2="89.5" stroke="#E5E5E5" stroke-linecap="round"/>
<path d="M53.0527 71.2764C53.1763 71.0296 53.4767 70.9293 53.7236 71.0527L57.7236 73.0527L58 73.1914V89C57.9999 89.2761 57.7761 89.5 57.5 89.5C57.2239 89.5 57.0001 89.2761 57 89V80.833L51.3076 78.4619C51.0528 78.3557 50.9319 78.0625 51.0381 77.8076C51.1443 77.5528 51.4375 77.4319 51.6924 77.5381L57 79.749V73.8086L53.2764 71.9473C53.0295 71.8238 52.9294 71.5233 53.0527 71.2764ZM74.3242 60.0322C74.5827 59.9353 74.8707 60.0659 74.9678 60.3242C75.0647 60.5827 74.9341 60.8707 74.6758 60.9678L71 62.3457V70.6289L76.248 67.5684C76.4865 67.4293 76.7925 67.5096 76.9316 67.748C77.0708 67.9865 76.9904 68.2925 76.752 68.4316L71 71.7861V89C71 89.2761 70.7761 89.5 70.5 89.5C70.2239 89.5 70 89.2761 70 89V61.6533L70.3242 61.5322L74.3242 60.0322ZM43.5 59C43.7761 59 44 59.2239 44 59.5V65.9326C44.0298 66.0354 44.1216 66.2321 44.3555 66.5039C44.6088 66.7983 45.0045 67.1559 45.5898 67.5469C46.7611 68.329 48.6653 69.2263 51.6289 70.0166C51.8957 70.0877 52.0545 70.3621 51.9834 70.6289C51.9122 70.8957 51.6379 71.0546 51.3711 70.9834C49.6904 70.5352 48.3236 70.0479 47.2197 69.5566L43.9092 74.2871C43.7507 74.5129 43.439 74.5674 43.2129 74.4092C42.9871 74.2507 42.9326 73.939 43.0908 73.7129L46.3057 69.1182C45.8201 68.8679 45.3984 68.6205 45.0352 68.3779C44.3917 67.9483 43.9224 67.5335 43.5977 67.1562C43.2799 66.7869 43.075 66.4236 43.0098 66.0977L43 66.0498V59.5C43 59.2239 43.2239 59 43.5 59ZM85 48.5C85.2761 48.5 85.5 48.7239 85.5 49V54C85.5 54.8543 84.9747 56.0797 83.6318 57.2734C83.0619 57.7801 82.3394 58.2844 81.4365 58.7607C81.4485 58.7827 81.4609 58.8048 81.4697 58.8291L83.4697 64.3291C83.5641 64.5886 83.4304 64.8753 83.1709 64.9697C82.9114 65.0641 82.6247 64.9304 82.5303 64.6709L80.5391 59.1963C79.4572 59.68 78.1612 60.1223 76.6143 60.4863C76.3455 60.5495 76.0769 60.383 76.0137 60.1143C75.9506 59.8455 76.117 59.5769 76.3857 59.5137C79.7282 58.7272 81.7707 57.5905 82.9678 56.5264C84.1748 55.4534 84.5 54.479 84.5 54V49C84.5 48.7239 84.7239 48.5 85 48.5ZM51.584 26.2227C51.7372 25.9929 52.0476 25.9308 52.2773 26.084L57.9873 29.8906C58.3804 29.4076 58.8605 29.0598 59.3779 28.8213C60.5166 28.2965 61.7847 28.3287 62.6084 28.5117C62.8778 28.5716 63.048 28.839 62.9883 29.1084C62.9283 29.3778 62.6611 29.5481 62.3916 29.4883C61.7153 29.338 60.6831 29.321 59.7969 29.7295C58.9532 30.1184 58.1857 30.9162 58 32.5342V63.5C57.9999 63.7761 57.7761 64 57.5 64C57.2239 64 57.0001 63.7761 57 63.5V48.498C56.9247 48.4981 56.8483 48.4832 56.7764 48.4473L51.7764 45.9473C51.5294 45.8238 51.4292 45.5234 51.5527 45.2764C51.6762 45.0294 51.9767 44.9293 52.2236 45.0527L57 47.4404V32.4727L57.0029 32.4453C57.0764 31.7843 57.2372 31.2202 57.4609 30.7412L51.7227 26.916C51.4929 26.7628 51.4308 26.4524 51.584 26.2227ZM48 41.5C48.2761 41.5 48.5 41.7239 48.5 42V49.0146C49.9121 49.093 50.8864 49.5034 51.5273 50.0596C52.2363 50.675 52.5 51.4379 52.5 52V61.7168L54.7568 63.0713C54.9935 63.2133 55.0705 63.5201 54.9287 63.7568C54.7867 63.9935 54.4799 64.0706 54.2432 63.9287L51.7432 62.4287L51.5 62.2832V52C51.5 51.7288 51.363 51.2417 50.8721 50.8154C50.386 50.3935 49.5139 50 48 50C45.0611 50 44.1439 51.4717 44 52.0596V57C44 57.2761 43.7761 57.5 43.5 57.5C43.2239 57.5 43 57.2761 43 57V51.9502L43.0098 51.9023C43.2202 50.8505 44.4698 49.1801 47.5 49.0137V42C47.5 41.7239 47.7239 41.5 48 41.5ZM65.4023 28.5098C66.2967 28.331 67.6608 28.296 68.8291 28.8193C69.4225 29.0852 69.9736 29.4992 70.373 30.1162C70.7725 30.7334 71 31.5213 71 32.5V34.2139L77.7881 31.0469C78.0382 30.9302 78.3362 31.0381 78.4531 31.2881C78.5698 31.5382 78.4619 31.8362 78.2119 31.9531L71 35.3184V56.5C70.9999 56.7761 70.7761 57 70.5 57C70.2239 57 70.0001 56.7761 70 56.5V32.5C70 31.6793 69.8106 31.0877 69.5332 30.6592C69.2557 30.2307 68.8689 29.9322 68.4209 29.7314C67.5061 29.3216 66.3699 29.3358 65.5977 29.4902C65.3272 29.5441 65.0641 29.369 65.0098 29.0986C64.9556 28.8279 65.1316 28.5639 65.4023 28.5098ZM80.5 36C82.3939 36 83.651 36.528 84.4395 37.2578C85.2204 37.9809 85.5 38.8659 85.5 39.5V41.9521L89.7969 40.043C90.0492 39.9308 90.3449 40.0446 90.457 40.2969C90.5692 40.5492 90.4555 40.8449 90.2031 40.957L85.7031 42.957C85.637 42.9864 85.568 42.9991 85.5 42.999V47C85.5 47.2761 85.2761 47.5 85 47.5C84.7239 47.5 84.5 47.2761 84.5 47V39.5C84.5 39.1342 84.3295 38.519 83.7607 37.9922C83.1991 37.4722 82.2059 37 80.5 37C78.7941 37 77.8009 37.4722 77.2393 37.9922C76.6705 38.519 76.5 39.1342 76.5 39.5V51.25L76.2998 51.4004C75.9689 51.6486 75.4476 52.0463 74.96 52.4307C74.4618 52.8232 74.0285 53.1786 73.8535 53.3535C73.6583 53.5488 73.3417 53.5488 73.1465 53.3535C72.9512 53.1583 72.9512 52.8417 73.1465 52.6465C73.3716 52.4214 73.8556 52.0269 74.3408 51.6445C74.7464 51.3249 75.1741 50.9974 75.5 50.751V39.5C75.5 38.8659 75.7796 37.9809 76.5605 37.2578C77.349 36.528 78.6061 36 80.5 36Z" fill="#E5E5E5"/>
</svg>
